<svg xmlns="http://www.w3.org/2000/svg" viewBox="0 0 32 32"><circle cx="16" cy="16" r="16" fill="#144C2F"/><path d="M7 16h14c2 0 3 1 3 3s-1 3-3 3h-14v-6z" fill="#FAF7F2"/><path d="M21 19c0 2-2 4-7 4s-7-2-7-4" stroke="#FAF7F2" stroke-width="1.5" fill="none"/><path d="M22 19c2 0 3 1 3 2s-1 2-3 2" stroke="#FAF7F2" stroke-width="1.2" fill="none"/><path d="M11 12 Q10 10 11 8 Q12 6 11 4" stroke="#FAF7F2" stroke-width="1.2" fill="none" stroke-linecap="round"/><path d="M15 12 Q14 10 15 8 Q16 6 15 4" stroke="#FAF7F2" stroke-width="1.2" fill="none" stroke-linecap="round"/><path d="M19 12 Q18 10 19 8 Q20 6 19 4" stroke="#FAF7F2" stroke-width="1.2" fill="none" stroke-linecap="round"/></svg>
